ply
format ascii 1.0
element vertex 210
property float x
property float y
property float z
element face 162
property list uchar int vertex_indices
end_header
-0.0785 0.171131 -0.0395635
-0.06925 0.17344 -0.0431373
-0.078 0.177314 -0.047571
-0.06925 0.179652 -0.0519975
-0.078 0.158984 -0.020311
-0.0785 0.165017 -0.029375
-0.0715 0.16661 -0.0196597
-0.069 0.169622 -0.0292566
-0.01725 0.187177 -0.0195878
-0.00875 0.167369 -0.0202021
-0.0145 0.175751 -0.019958
-0.00925 0.179592 -0.0276713
-0.073 0.156207 -0.00276241
-0.066 0.159095 -0.0108644
-0.03525 0.151075 -0.000192769
-0.02625 0.155459 -0.0033013
-0.01775 0.159895 -0.00695254
-0.03725 0.161473 -7.26283e-05
-0.049 0.166725 -0.000217944
-0.03 0.165183 -0.00601999
-0.01725 0.167404 -0.0135862
-0.04025 0.171977 -0.000768505
-0.0255 0.172714 -0.0115748
-0.031 0.175734 -0.00361278
-0.02575 0.182541 -0.00930324
-0.07075 0.0368713 0.00998855
-0.0635 0.0436183 0.0118929
-0.0545 0.0480199 0.0122743
-0.058 0.0528595 0.00308012
-0.054 0.0571657 0.0185949
-0.0645 0.0598561 0.0169402
0.05275 0.0465405 0.0194973
0.05925 0.0565255 0.0193571
-0.07325 0.0649479 0.0183256
-0.08075 0.0719053 0.0166595
-0.0825 0.0746735 0.0071175
-0.08575 0.0805787 0.0185485
0.06025 0.0662903 0.017434
0.04625 0.0721287 0.0193277
0.0465 0.0793296 0.0118087
-0.0895 0.0899259 0.0191849
-0.0895 0.0998843 0.0169186
-0.08625 0.109396 0.0188477
0.04525 0.0903412 0.0149872
0.042 0.100016 0.0189534
0.03775 0.109404 0.0189749
-0.09375 0.118087 0.0193757
-0.09075 0.134052 0.0192401
-0.04425 0.126792 0.019504
-0.0485 0.136211 0.0186022
-0.029 0.124599 0.0192529
-0.019 0.127503 0.019122
0.00075 0.131064 0.0172121
0.02675 0.122343 0.0176047
0.018 0.127519 0.019503
-0.0885 0.15223 0.0192154
-0.0495 0.143271 0.0113555
-0.04325 0.149725 0.00614276
-0.053 0.150782 0.0194713
-0.0505 0.154961 0.0107068
-0.059 0.1578 0.006007
-0.06625 0.036975 0.038151
-0.062 0.0462442 0.0383845
-0.05175 0.048377 0.0383799
-0.05275 0.0517431 0.0288702
-0.044 0.0548024 0.0390077
-0.05025 0.0606265 0.0334314
-0.03625 0.0484509 0.0391402
-0.02675 0.0526465 0.0384993
-0.0345 0.0590306 0.0391377
0.02225 0.0384644 0.0387821
0.02875 0.0369055 0.0240679
0.02875 0.0435097 0.0324306
0.02475 0.0498718 0.039137
0.035 0.0512994 0.0316577
0.03275 0.0583163 0.0390104
0.038 0.0406485 0.0254597
0.046 0.0466116 0.0276088
0.05225 0.0545324 0.0284882
0.04275 0.0576462 0.0316562
-0.07025 0.0672009 0.0279719
-0.0695 0.0728507 0.0363535
-0.078 0.0734844 0.0270778
-0.077 0.0797642 0.0348303
-0.08375 0.0842146 0.0287231
-0.0605 0.0620984 0.0261992
-0.0605 0.0671002 0.0349548
-0.049 0.0688582 0.0390183
-0.027 0.0660471 0.0390162
0.03475 0.0681225 0.0386369
0.04975 0.0644532 0.0288624
0.04075 0.0688315 0.0305107
0.03675 0.0778699 0.0374997
0.04225 0.0785138 0.0280909
-0.07675 0.0892114 0.0383982
-0.08575 0.0941369 0.0277174
-0.07925 0.0988699 0.0342121
-0.071 0.102716 0.0386681
-0.0835 0.104863 0.0273551
-0.051 0.106998 0.0390543
-0.06225 0.107707 0.0390551
-0.03925 0.104869 0.0390519
-0.0295 0.108402 0.0388017
0.035 0.092807 0.0390385
0.02925 0.102031 0.0390488
0.035 0.105096 0.0311696
0.02125 0.109126 0.0390567
0.0405 0.0879782 0.0315244
-0.09225 0.116215 0.0389375
-0.093 0.124946 0.0271276
-0.091 0.129723 0.037916
-0.04375 0.113169 0.0351217
-0.0565 0.115352 0.0360141
-0.04775 0.11999 0.0289066
-0.056 0.125472 0.0390666
-0.0505 0.129469 0.031693
-0.06275 0.133351 0.0390527
-0.02075 0.113349 0.038426
-0.034 0.115185 0.0328373
-0.025 0.119373 0.030938
-0.03825 0.122772 0.0270039
0.0085 0.115505 0.0389367
-0.011 0.116924 0.0389383
-0.001 0.119726 0.0381793
-0.01525 0.122993 0.0318305
0.00675 0.124501 0.0333523
-0.006 0.126534 0.0304276
0.00825 0.129883 0.024072
0.02875 0.113059 0.0330883
0.0175 0.118159 0.0352555
0.02425 0.121374 0.0278929
-0.0895 0.139688 0.0357399
-0.09125 0.142993 0.0263383
-0.0825 0.146938 0.0382668
-0.072 0.149827 0.0391504
-0.085 0.151019 0.0292461
-0.07525 0.154633 0.0294943
-0.057 0.138126 0.03206
-0.06425 0.143374 0.0389079
-0.0575 0.148197 0.0316627
-0.06525 0.154663 0.0308906
-0.05975 0.0378044 0.0458897
-0.04975 0.0378316 0.0461434
-0.04025 0.0374645 0.0427181
-0.0325 0.03758 0.0503363
-0.02275 0.0386747 0.0539357
-0.02825 0.0466676 0.0497078
-0.01775 0.0467665 0.0506684
-0.021 0.0554845 0.0463583
-0.0135 0.0375669 0.0502163
-0.00375 0.0380084 0.0477926
0.00625 0.0377637 0.0455091
0.00175 0.046581 0.0488672
-0.00775 0.0495932 0.0507798
0.0085 0.0532535 0.0522101
-0.001 0.0562722 0.0546162
-0.01275 0.0581776 0.0526986
0.015 0.0426177 0.0446073
0.0175 0.0527427 0.0469868
0.02425 0.0602725 0.0450987
-0.0695 0.0816816 0.0411902
-0.05775 0.0740012 0.0416903
-0.043 0.0762121 0.0429637
-0.0525 0.0819667 0.0447516
-0.0215 0.0654352 0.0480253
-0.017 0.0715892 0.0548797
-0.0335 0.0732779 0.0414354
-0.0255 0.0751588 0.0471552
-0.02275 0.0806611 0.0553729
-0.0355 0.0832574 0.0433544
-0.0275 0.0864641 0.0485536
0.00675 0.0626167 0.0555859
-0.00675 0.0654372 0.05607
0.001 0.0717448 0.0567986
-0.00875 0.0766475 0.0574049
0.0085 0.0785944 0.0556096
-0.0005 0.0828885 0.0574133
-0.014 0.0856461 0.0571774
0.01575 0.0621417 0.0503054
0.02125 0.070443 0.0493614
0.029 0.0748939 0.0439784
0.0185 0.0797655 0.0526151
0.02575 0.0842706 0.0472994
-0.07825 0.109325 0.042489
-0.06175 0.0868929 0.0450137
-0.04475 0.0881921 0.0436152
-0.054 0.093194 0.0443828
-0.06375 0.0966191 0.042859
-0.0205 0.0923682 0.0532299
-0.036 0.093194 0.0443828
-0.02575 0.0952856 0.0440028
-0.017 0.100214 0.0437525
0.00725 0.0890036 0.0553846
-0.00575 0.0918661 0.0564636
0.00225 0.0972314 0.0525135
-0.009 0.0992111 0.0502392
-0.00175 0.10235 0.0440086
0.00825 0.102497 0.0462978
0.0165 0.089422 0.0509528
0.024 0.0947603 0.046547
-0.07075 0.112483 0.0484504
-0.08575 0.115227 0.0470689
-0.07775 0.119629 0.0515661
-0.069 0.124578 0.0522832
-0.08825 0.125096 0.0466887
-0.08125 0.129547 0.0525138
-0.06925 0.133693 0.048069
-0.08625 0.135031 0.0457805
-0.063 0.117159 0.0435125
-0.0775 0.140099 0.0481834
3 0 1 2
3 4 5 6
3 0 5 7
3 8 10 11
3 4 6 12
3 14 15 17
3 15 16 19
3 19 20 22
3 21 22 23
3 8 22 24
3 9 10 20
3 56 57 58
3 17 57 59
3 18 59 60
3 17 18 21
3 63 64 65
3 29 64 66
3 65 67 68
3 70 71 72
3 72 73 74
3 31 76 77
3 32 77 78
3 74 78 79
3 34 80 82
3 80 81 82
3 36 82 83
3 36 83 84
3 29 30 85
3 30 33 80
3 30 80 85
3 66 85 86
3 66 86 87
3 75 79 89
3 37 78 90
3 89 90 91
3 89 91 92
3 38 91 93
3 39 43 93
3 40 84 95
3 84 94 95
3 41 42 95
3 42 96 98
3 104 105 106
3 93 103 107
3 43 44 107
3 103 105 107
3 44 45 105
3 47 109 110
3 99 101 111
3 99 100 112
3 111 112 113
3 113 114 115
3 48 113 115
3 102 111 118
3 111 113 118
3 117 118 119
3 50 118 120
3 50 51 119
3 48 50 120
3 121 122 123
3 119 122 124
3 121 123 125
3 123 124 126
3 52 125 126
3 45 53 128
3 106 121 129
3 121 125 129
3 128 129 130
3 53 54 130
3 54 125 127
3 47 110 131
3 47 131 132
3 55 132 133
3 55 133 135
3 133 134 135
3 115 116 137
3 49 115 137
3 137 138 139
3 58 137 139
3 134 136 140
3 61 62 141
3 63 141 142
3 67 143 144
3 144 145 146
3 67 144 146
3 68 146 147
3 68 147 148
3 145 147 149
3 150 151 152
3 147 150 152
3 147 152 153
3 153 154 155
3 148 153 156
3 153 155 156
3 70 151 157
3 152 154 157
3 73 157 158
3 75 158 159
3 81 83 160
3 81 86 161
3 87 161 162
3 160 161 163
3 65 69 87
3 88 148 164
3 148 156 164
3 69 88 162
3 88 164 166
3 164 165 167
3 162 166 169
3 166 167 169
3 167 168 169
3 155 171 172
3 156 165 172
3 165 173 174
3 174 175 176
3 168 174 177
3 174 176 177
3 158 171 178
3 171 175 178
3 159 178 179
3 89 159 179
3 89 179 180
3 175 179 181
3 180 181 182
3 92 180 182
3 163 169 185
3 184 185 186
3 97 184 187
3 184 186 187
3 170 177 188
3 169 170 189
3 170 188 190
3 101 189 190
3 102 190 191
3 176 192 193
3 188 191 193
3 193 194 195
3 194 196 197
3 191 195 196
3 122 191 196
3 181 192 198
3 182 198 199
3 103 182 199
3 192 194 197
3 192 197 198
3 104 106 199
3 106 197 199
3 108 183 201
3 183 200 201
3 110 201 204
3 201 202 204
3 202 203 205
3 110 204 207
3 204 205 207
3 100 200 208
3 200 203 208
3 112 114 208
3 114 116 203
3 205 206 207
3 131 133 207
3 138 206 209
3 134 138 209
